<?xml version="1.0" encoding="UTF-8" standalone="no"?>
<svg width="20px" height="20px" viewBox="0 0 20 20" version="1.1" xmlns="http://www.w3.org/2000/svg" xmlns:xlink="http://www.w3.org/1999/xlink" xmlns:sketch="http://www.bohemiancoding.com/sketch/ns">
    <!-- Generator: Sketch 3.4.4 (17249) - http://www.bohemiancoding.com/sketch -->
    <title>Page 1</title>
    <desc>Created with Sketch.</desc>
    <defs></defs>
    <g id="Page-1" stroke="none" stroke-width="1" fill="none" fill-rule="evenodd" sketch:type="MSPage">
        <g id="MenuActive" sketch:type="MSArtboardGroup" transform="translate(-16.000000, -287.000000)" fill="#FFFFFF">
            <g id="Page-1" sketch:type="MSLayerGroup" transform="translate(16.000000, 287.000000)">
                <path d="M11.75,19.8333333 L11.6666667,18.8333342 C11.5833333,18.0000008 10.8333333,17.4166667 10,17.4166667 C9.16666667,17.4166667 8.5,18.0000008 8.33333333,18.8333342 L8.16666667,19.75 L7.25,19.5 C5.66666667,19.0833333 4.16666667,18.1666675 2.91666667,17.0000008 L2.25,16.3333342 L3,15.75 C3.66666667,15.2500008 3.83333333,14.3333342 3.41666667,13.5833342 C3,12.9166675 2.08333333,12.5833342 1.33333333,12.8333342 L0.416666667,13.1666675 L0.333333333,12.4166667 C0.0833333333,11.5833333 0,10.75 0,9.91666667 C0,9.08333333 0.0833333333,8.25 0.333333333,7.41666667 L0.583333333,6.5 L1.5,6.83333333 C2.25,7.16666667 3.16666667,6.83333333 3.58333333,6.08333333 C4,5.33333333 3.83333333,4.41666667 3.16666667,3.91666667 L2.33333333,3.41666667 L3,2.75 C4.25,1.58333333 5.66666667,0.75 7.33333333,0.25 L8.25,0 L8.33333333,1 C8.41666667,1.83333333 9.16666667,2.41666667 10,2.41666667 C10.8333333,2.41666667 11.5,1.83333333 11.6666667,1 L11.8333333,0.0833333333 L12.75,0.333333333 C14.3333333,0.75 15.8333333,1.66666667 17.0833333,2.83333333 L17.75,3.5 L17,4.08333333 C16.3333333,4.58333333 16.1666667,5.5 16.5833333,6.25 C16.9166667,6.75 17.4166667,7.08333333 18,7.08333333 L18,7.08333333 C18.25,7.08333333 18.4166667,7.08333333 18.5833333,7 L19.5,6.66666667 L19.6666667,7.41666667 C19.8333333,8.25 20,9.08333333 20,9.91666667 C20,10.75 19.9166667,11.5833333 19.6666667,12.4166667 L19.4166667,13.3333333 L18.5,13 C17.75,12.6666667 16.8333333,13 16.4166667,13.75 C16,14.5 16.1666667,15.4166667 16.8333333,15.9166667 L17.5833333,16.5 L16.9166667,17.1666667 C15.75,18.3333333 14.25,19.1666667 12.5833333,19.6666667 L11.75,19.8333333 L11.75,19.8333333 Z M10,15.75 C11.3333333,15.75 12.5,16.5 13,17.6666667 C13.75,17.3333333 14.5,16.9166667 15.1666667,16.4166667 C14.4166667,15.4166667 14.3333333,14 15,12.8333333 C15.6666667,11.75 16.9166667,11.0833333 18.1666667,11.1666667 C18.3333333,10.75 18.3333333,10.3333333 18.3333333,9.91666667 C18.3333333,9.5 18.3333333,9.08333333 18.25,8.66666667 L17.9166667,8.66666667 L17.9166667,8.66666667 C16.75,8.66666667 15.5833333,8 15,7 C14.3333333,5.83333333 14.4166667,4.41666667 15.1666667,3.41666667 C14.5,2.91666667 13.75,2.41666667 13,2.16666667 C12.5,3.33333333 11.3333333,4.08333333 10,4.08333333 C8.66666667,4.08333333 7.5,3.33333333 7,2.16666667 C6.16666667,2.41666667 5.41666667,2.91666667 4.75,3.41666667 C5.5,4.41666667 5.58333333,5.83333333 4.91666667,7 C4.25,8.08333333 3,8.75 1.75,8.66666667 C1.66666667,9.08333333 1.66666667,9.5 1.66666667,9.91666667 C1.66666667,10.3333333 1.66666667,10.75 1.75,11.1666667 C3,11.0833333 4.25,11.6666667 4.91666667,12.8333333 C5.58333333,14 5.5,15.4166667 4.75,16.4166667 C5.41666667,16.9166667 6.16666667,17.4166667 6.91666667,17.6666667 C7.5,16.5 8.66666667,15.75 10,15.75 L10,15.75 Z" id="Fill-1" sketch:type="MSShapeGroup"></path>
                <path d="M10,13.3333333 C8.16666667,13.3333333 6.66666667,11.8333333 6.66666667,10 C6.66666667,8.16666667 8.16666667,6.66666667 10,6.66666667 C11.8333333,6.66666667 13.3333333,8.16666667 13.3333333,10 C13.3333333,11.8333333 11.8333333,13.3333333 10,13.3333333 L10,13.3333333 Z M10,8.33333333 C9.08333333,8.33333333 8.33333333,9.08333333 8.33333333,10 C8.33333333,10.9166667 9.08333333,11.6666667 10,11.6666667 C10.9166667,11.6666667 11.6666667,10.9166667 11.6666667,10 C11.6666667,9.08333333 10.9166667,8.33333333 10,8.33333333 L10,8.33333333 Z" id="Fill-3" sketch:type="MSShapeGroup"></path>
            </g>
        </g>
    </g>
</svg>