<?xml version="1.0" encoding="UTF-8" standalone="no"?>
<svg width="20px" height="22px" viewBox="0 0 20 22" version="1.1" xmlns="http://www.w3.org/2000/svg" xmlns:xlink="http://www.w3.org/1999/xlink" xmlns:sketch="http://www.bohemiancoding.com/sketch/ns">
    <!-- Generator: Sketch 3.4.4 (17249) - http://www.bohemiancoding.com/sketch -->
    <title>Page 1</title>
    <desc>Created with Sketch.</desc>
    <defs></defs>
    <g id="Page-1" stroke="none" stroke-width="1" fill="none" fill-rule="evenodd" sketch:type="MSPage">
        <g id="MenuActive" sketch:type="MSArtboardGroup" transform="translate(-16.000000, -227.000000)" fill="#FFFFFF">
            <g id="Page-1" sketch:type="MSLayerGroup" transform="translate(16.000000, 227.666667)">
                <path d="M9.52380952,11.4285714 C8.66666667,11.4285714 7.9047619,11.1428571 7.23809524,10.7619048 C5.61904762,9.71428571 4.76190476,7.52380952 4.76190476,4.76190476 C4.76190476,2.0952381 6.85714286,5.68434189e-14 9.52380952,5.68434189e-14 C12.1904762,5.68434189e-14 14.2857143,2.0952381 14.2857143,4.76190476 C14.2857143,7.52380952 13.4285714,9.71428571 11.8095238,10.7619048 C11.1428571,11.1428571 10.3809524,11.4285714 9.52380952,11.4285714 L9.52380952,11.4285714 Z M9.52380952,1.9047619 C7.9047619,1.9047619 6.66666667,3.14285714 6.66666667,4.76190476 C6.66666667,6.85714286 7.23809524,8.47619048 8.28571429,9.14285714 C9.04761905,9.61904762 10,9.61904762 10.7619048,9.14285714 C11.8095238,8.47619048 12.3809524,6.85714286 12.3809524,4.76190476 C12.3809524,3.14285714 11.1428571,1.9047619 9.52380952,1.9047619 L9.52380952,1.9047619 Z" id="Fill-1" sketch:type="MSShapeGroup"></path>
                <path d="M9.52380952,20.952381 C7.33333333,20.952381 0,20.6666667 0,17.1428571 C0,13.6190476 2.57142857,12.3809524 5.42857143,11.5238095 C5.61904762,11.4285714 6.38095238,11.1428571 6.66666667,9.71428571 L8.57142857,10.0952381 C8.28571429,11.8095238 7.33333333,12.8571429 6,13.3333333 C3.14285714,14.2857143 1.9047619,15.0476181 1.9047619,17.1428571 C1.9047619,18.1904762 5.9047619,19.047619 9.52380952,19.047619 C13.1428571,19.047619 17.1428571,18.1904762 17.1428571,17.1428571 C17.1428571,15.047619 15.9047619,14.2857143 13.047619,13.2380952 C11.7142857,12.7619048 10.8571429,11.7142857 10.4761905,10 L12.3809524,9.61904762 C12.6666667,11.047619 13.4285714,11.3333333 13.7142857,11.4285714 C16.5714286,12.3809524 19.1428571,13.5238095 19.1428571,17.047619 C19.047619,18 18.3809524,20.952381 9.52380952,20.952381 L9.52380952,20.952381 Z" id="Fill-3" sketch:type="MSShapeGroup"></path>
            </g>
        </g>
    </g>
</svg>