<?xml version="1.0" encoding="UTF-8" standalone="no"?>
<svg width="21px" height="20px" viewBox="0 0 21 20" version="1.1" xmlns="http://www.w3.org/2000/svg" xmlns:xlink="http://www.w3.org/1999/xlink" xmlns:sketch="http://www.bohemiancoding.com/sketch/ns">
    <!-- Generator: Sketch 3.4.4 (17249) - http://www.bohemiancoding.com/sketch -->
    <title>home</title>
    <desc>Created with Sketch.</desc>
    <defs></defs>
    <g id="Page-1" stroke="none" stroke-width="1" fill="none" fill-rule="evenodd" sketch:type="MSPage">
        <g id="MenuActive" sketch:type="MSArtboardGroup" transform="translate(-16.000000, -110.000000)" fill="#FFFFFF">
            <g id="home" sketch:type="MSLayerGroup" transform="translate(15.000000, 110.000000)">
                <path d="M16.8333333,20 L5.16666667,20 C4.66666667,20 4.33333333,19.6666667 4.33333333,19.1666667 L4.33333333,11.6666667 L1.83333333,11.6666667 C1.5,11.6666667 1.16666667,11.5 1.08333333,11.1666667 C0.916666667,10.8333333 1,10.5 1.25,10.25 L10.4166667,0.25 C10.75,-0.0833333333 11.3333333,-0.0833333333 11.6666667,0.25 L20.8333333,10.25 C21.0833333,10.5 21.0833333,10.8333333 21,11.1666667 C20.8333333,11.5 20.5,11.6666667 20.1666667,11.6666667 L17.6666667,11.6666667 L17.6666667,19.1666667 C17.6666667,19.6666667 17.3333333,20 16.8333333,20 L16.8333333,20 Z M6,18.3333333 L16,18.3333333 L16,10.8333333 C16,10.3333333 16.3333333,10 16.8333333,10 L18.25,10 L11,2.08333333 L3.75,10 L5.16666667,10 C5.66666667,10 6,10.3333333 6,10.8333333 L6,18.3333333 L6,18.3333333 Z" id="Fill-1" sketch:type="MSShapeGroup"></path>
                <path d="M12.6666667,20 L9.33333333,20 C8.83333333,20 8.5,19.6666667 8.5,19.1666667 L8.5,14.1666667 C8.5,13.6666667 8.83333333,13.3333333 9.33333333,13.3333333 L12.6666667,13.3333333 C13.1666667,13.3333333 13.5,13.6666667 13.5,14.1666667 L13.5,19.1666667 C13.5,19.6666667 13.1666667,20 12.6666667,20 L12.6666667,20 Z M10.1666667,18.3333333 L11.8333333,18.3333333 L11.8333333,15 L10.1666667,15 L10.1666667,18.3333333 L10.1666667,18.3333333 Z" id="Fill-3" sketch:type="MSShapeGroup"></path>
            </g>
        </g>
    </g>
</svg>